# xmcd
#
# Track frame offsets:
#	150
#	13085
#	24906
#	36790
#	52951
#	68488
#	81356
#	90722
#	105940
#	119177
#	139321
#	147808
#	157573
#	167985
#
# Disc length: 2448 seconds
#
# Revision: 2
# Processed by: cddbd v1.5.1PL2 Copyright (c) Steve Scherf et al.
# Submitted via: audiograbber 1.83.01
#
DISCID=ae098e0e
DTITLE=Esther und Abi Ofarim - Neue Lieder und Songs
DYEAR=1900
DGENRE=
TTITLE0=Sing Hallelujah
TTITLE1=Ya Viene Marzo Con Flores
TTITLE2=Ma Omrot Einyich
TTITLE3=Die Wahrheit
TTITLE4=Im Going Home
TTITLE5=Yamin Usmol
TTITLE6=Canario
TTITLE7=My Fisherman My Laddie O
TTITLE8=Mi Cabello
TTITLE9=Sometime I Feel Like A Motheriess Child
TTITLE10=Rekefet
TTITLE11=Schönes Mädchen
TTITLE12=Entends tu Le Vent
TTITLE13=Ty Posztoj
EXTD=Schallplatte
EXTT0=
EXTT1=
EXTT2=
EXTT3=
EXTT4=
EXTT5=
EXTT6=
EXTT7=
EXTT8=
EXTT9=
EXTT10=
EXTT11=
EXTT12=
EXTT13=
PLAYORDER=
